<?xml version="1.0" encoding="utf-8"?>
<!-- Generator: Adobe Illustrator 23.0.3, SVG Export Plug-In . SVG Version: 6.00 Build 0)  -->
<svg version="1.1" id="图层_1" xmlns="http://www.w3.org/2000/svg" xmlns:xlink="http://www.w3.org/1999/xlink" x="0px" y="0px"
	 viewBox="0 0 200 200" style="enable-background:new 0 0 200 200;" xml:space="preserve">
<style type="text/css">
	.st0{fill:url(#SVGID_1_);}
</style>
<linearGradient id="SVGID_1_" gradientUnits="userSpaceOnUse" x1="107.996" y1="32.6" x2="107.996" y2="167.3">
	<stop  offset="0" style="stop-color:#6699FF"/>
	<stop  offset="1" style="stop-color:#3377FF"/>
</linearGradient>
<path class="st0" d="M147.5,104.3c-0.1,0.3-0.3,0.6-0.4,0.7c0,0.1-0.1,0.2-0.1,0.3c-0.3,0.5-0.7,1.3-1.3,1.9l-0.1,0.1
	c-0.1,0.2-0.3,0.4-0.4,0.5l-58.5,56.4c-2.1,2-4.9,3.1-7.7,3.1c-3.1,0-5.9-1.2-8-3.4c-4.3-4.4-4.1-11.5,0.3-15.8l50.4-48.5L70.9,51.9
	c-4.5-4.2-4.7-11.3-0.4-15.8c2.1-2.2,5.1-3.5,8.1-3.5c2.8,0,5.6,1.1,7.6,3l59,55.8C148.6,94.7,149.6,99.9,147.5,104.3L147.5,104.3z"
	/>
</svg>
