<svg id="图层_1" xmlns="http://www.w3.org/2000/svg" viewBox="0 0 650.5 204.8"><style>.st0,.st1{fill:#fc766a}.st1{fill-rule:evenodd;clip-rule:evenodd}.st2{fill:#aaa}</style><path class="st0" d="M40.2 118c4.3 4.5 10.1 7.1 16.4 7.1 2.4 0 4.8-.4 7-1.1 8.7-2.8 23-19.5 23.6-20.2l.7-3.5h-.8c-.8-.7-14.6-16.6-23.3-19.4-2.3-.7-4.6-1.1-7-1.1h-1.4c-11.4.6-20.8 10-21.4 21.4-.3 6.3 1.9 12.2 6.2 16.8zm15.4-34.2c2.4-.1 4.7.2 6.9.9 5.8 1.9 16.4 12 21.1 17.1-4.6 5.3-15.4 16.5-21.3 18.4-1.9.6-3.8.9-5.8.9-5.2 0-9.9-2.1-13.5-5.8-3.5-3.7-5.3-8.6-5.1-13.8.6-9.5 8.3-17.2 17.7-17.7z"/><path class="st0" d="M138.3 141.4c1.8.3 3.7.4 5.6.4 21.7.1 39.5-17.5 39.6-39.3S165.9 63.1 144.1 63c-4.2 0-8.3.6-12.2 1.9-7.1 2.3-18 10.8-31.5 24.5C93 97 86.2 105 86.1 105l-2.5-3.2c.1-.1 6.4-7.5 14-15.2 9.7-9.9 23.3-22.3 33.1-25.5 4.3-1.4 8.8-2.1 13.4-2.1 23.9.1 43.3 19.6 43.2 43.6-.1 23.9-19.6 43.3-43.6 43.2h-1.2l-4.2-4.4z"/><path transform="matrix(-.74 .6727 -.6727 -.74 255.56 81.704)" class="st0" d="M109 89h6v2.6h-6z"/><path transform="matrix(-.74 .6727 -.6727 -.74 265.02 61.119)" class="st0" d="M117.7 80.5h6v2.6h-6z"/><path transform="rotate(147.833 69.006 130.28)" class="st0" d="M66 129h6v2.6h-6z"/><path transform="matrix(-1 -.00388 .00388 -1 115.068 265.26)" class="st0" d="M54.8 131.2h6v2.6h-6z"/><path transform="scale(-1) rotate(-42.273 -298.753 228.006)" class="st0" d="M85.1 114.2h6v2.6h-6z"/><path transform="rotate(135.219 95.964 107.512)" class="st0" d="M93 106.2h6v2.6h-6z"/><path transform="rotate(135.219 103.506 99.013)" class="st0" d="M100.5 97.7h6v2.6h-6z"/><path transform="scale(-1) rotate(-34.133 -242.887 423.127)" class="st0" d="M126.9 73.3h6v2.6h-6z"/><path transform="matrix(-1 -.00388 .00388 -1 283.137 142.43)" class="st0" d="M138.7 69.7h6v2.6h-6z"/><path transform="matrix(-1 -.00388 .00388 -1 282.408 267.733)" class="st0" d="M138.5 132.3h6v2.6h-6z"/><path transform="scale(-1) rotate(25.184 327.946 -693.805)" class="st0" d="M152 72h6v2.6h-6z"/><path transform="rotate(-134.781 165.4 80.286)" class="st0" d="M162.4 79h6v2.6h-6z"/><path transform="scale(-1) rotate(64.829 143.902 -270.941)" class="st0" d="M169 90.1h6v2.6h-6z"/><path transform="matrix(.00388 -1 1 .00388 68.646 278.116)" class="st0" d="M170.9 103.3h6v2.6h-6z"/><path transform="rotate(-62.374 170.07 116.56)" class="st0" d="M167.1 115.3h6v2.6h-6z"/><path transform="rotate(-42.43 162.44 126.093)" class="st0" d="M159.4 124.8h6v2.6h-6z"/><path transform="rotate(-16.524 152.641 131.771)" class="st0" d="M149.6 130.5h6v2.6h-6z"/><path transform="rotate(65.613 126.974 132.793)" class="st0" d="M124 131.5h6v2.6h-6z"/><path transform="rotate(50.454 120.536 123.76)" class="st0" d="M117.5 122.5h6v2.6h-6z"/><path transform="rotate(45.219 111.667 114.898)" class="st0" d="M108.7 113.6h6v2.6h-6z"/><path transform="rotate(45.219 88.23 90.138)" class="st0" d="M85.2 88.8h6v2.6h-6z"/><path transform="rotate(-39.547 34.619 78.809)" class="st0" d="M31.6 77.5h6v2.6h-6z"/><path transform="rotate(45.219 80.14 81.984)" class="st0" d="M77.1 80.7h6v2.6h-6z"/><path transform="rotate(30.224 70.623 74.58)" class="st0" d="M67.6 73.3h6v2.6h-6z"/><path transform="matrix(1 .00388 -.00388 1 .277 -.225)" class="st0" d="M55 70h6v2.6h-6z"/><path transform="rotate(-24.384 45.453 72.86)" class="st0" d="M42.4 71.6h6v2.6h-6z"/><path transform="rotate(-66.609 27.047 89.072)" class="st0" d="M24 87.8h6v2.6h-6z"/><path transform="matrix(.00388 -1 1 .00388 -77.028 126.311)" class="st0" d="M21.9 100.5h6v2.6h-6z"/><path transform="rotate(-115.633 26.954 113.752)" class="st0" d="M23.9 112.5h6v2.6h-6z"/><path transform="scale(-1) rotate(47.083 285.436 -79.04)" class="st0" d="M31.4 123.1h6v2.6h-6z"/><path transform="scale(-1) rotate(19.08 778.227 -270.598)" class="st0" d="M42.5 129.5h6v2.6h-6z"/><path transform="scale(-1) rotate(-42.273 -318.968 204.751)" class="st0" d="M76.2 122h6v2.6h-6z"/><path class="st0" d="M115.2 102.6H110l1.1-1.2c.6-.7 14.8-17.4 23.6-20.2 2.3-.7 4.6-1.1 7-1.1 6.3 0 12.1 2.5 16.4 7.1 4.3 4.5 6.5 10.5 6.2 16.8-.6 11.4-10 20.8-21.3 21.4h-1.4c-2.4 0-4.7-.4-7-1.1-2-.7-4.3-2.1-6.7-3.8l2.8-2.9c1.9 1.4 3.6 2.4 5.1 2.9 2.2.7 4.5 1 6.9.9 9.4-.5 17.1-8.3 17.6-17.7.3-5.2-1.5-10.1-5.1-13.8-3.5-3.7-8.3-5.8-13.5-5.8-2 0-3.9.3-5.8.9-5.8 1.9-16 12.4-20.7 17.6zM98.1 167.6c6.3.3 12.2-1.9 16.8-6.2 4.5-4.3 7.1-10.1 7.1-16.4 0-2.4-.4-4.8-1.1-7-2.2-7-13.4-17.3-17.9-21.9l-25.4 22.5c-.6 2-.9 4.1-.9 6.2v1.4c.6 11.5 10 20.9 21.4 21.4zm-17.5-21.5c-.1-2.4.2-4.7.9-6.9.6-1.9 2.1-4.2 4.1-6.6l14.5-13.4s15.2 14.5 17 20.2c.6 1.9.9 3.8.9 5.8 0 5.2-2.1 9.9-5.8 13.5-3.7 3.5-8.6 5.3-13.8 5.1-9.5-.6-17.3-8.3-17.8-17.7zM121.5 65.8l-7.2 5.3c1.4-1.9 2.5-3.7 3-5.2.6-1.9.9-3.8.9-5.8 0-10.3-8.3-18.7-18.6-18.7-10.2 0-18.6 8.3-18.7 18.6 0 2 .3 3.9.9 5.8.6 1.9 2.1 4.3 4.1 6.7L83 75.3c-2.3-2.9-4.3-5.8-5-8.3-.7-2.3-1.1-4.6-1.1-7 0-12.5 10.3-22.6 22.7-22.6s22.6 10.3 22.6 22.7c0 2-.2 3.9-.7 5.7z"/><path class="st0" d="M59.9 59.3l-4-.3v-1.5c.1-23.9 19.6-43.3 43.6-43.2 23.9.1 43.3 19.6 43.2 43.6v1.2l-4 .3v-1.5c.1-21.7-17.5-39.5-39.3-39.6S60 35.8 59.9 57.5v1.8z"/><path class="st0" d="M110 102.6h5.2l-1.1 1.3c-1.2 1.4-29.4 34.4-46.3 39.8-4.3 1.4-8.8 2.1-13.4 2.1-23.9-.1-43.3-19.6-43.2-43.6 0-23.9 19.6-43.3 43.5-43.2 4.6 0 9.1.7 13.4 2.2 9.1 3 21.5 14 31.1 23.8v5.7C89.6 80.6 76.2 68 66.9 65c-3.9-1.3-8-2-12.2-2-21.7-.1-39.5 17.5-39.6 39.2-.1 21.7 17.5 39.5 39.3 39.6 4.2 0 8.3-.6 12.2-1.9 14.1-4.5 38-31.1 43.4-37.3z"/><path transform="matrix(-.00388 1 -1 -.00388 273.774 15.05)" class="st0" d="M126.4 142.6h6v2.6h-6z"/><path transform="rotate(90.222 67.813 59.966) scale(1.00001)" class="st0" d="M64.8 58.7h6v2.6h-6z"/><path transform="rotate(90.222 130.466 60.21) scale(1.00001)" class="st0" d="M127.5 58.9h6v2.6h-6z"/><path transform="scale(-1) rotate(-64.816 -73.569 110.468)" class="st0" d="M67.1 45.4h6V48h-6z"/><path transform="rotate(135.219 77.154 36.271)" class="st0" d="M74.1 35h6v2.6h-6z"/><path transform="scale(-1) rotate(-25.171 -132.762 395.26)" class="st0" d="M85.2 28.4h6V31h-6z"/><path transform="matrix(-1 -.00388 .00388 -1 202.84 55.895)" class="st0" d="M98.5 26.5h6v2.6h-6z"/><path transform="rotate(-152.375 113.434 31.606)" class="st0" d="M110.4 30.3h6v2.6h-6z"/><path transform="rotate(-132.431 122.968 39.226)" class="st0" d="M120 37.9h6v2.6h-6z"/><path transform="rotate(-106.529 128.666 49.022)" class="st0" d="M125.7 47.7h6v2.6h-6z"/><path transform="rotate(-129.546 75.68 167.053)" class="st0" d="M72.7 165.8h6v2.6h-6z"/><path transform="matrix(.00388 -1 1 .00388 -75.734 211.26)" class="st0" d="M65.2 142.4h6v2.6h-6z"/><path transform="rotate(-114.387 69.738 156.216)" class="st0" d="M66.7 154.9h6v2.6h-6z"/><path transform="rotate(-156.607 85.944 174.627)" class="st0" d="M82.9 173.3h6v2.6h-6z"/><path transform="matrix(-1 -.00388 .00388 -1 196.698 353.953)" class="st0" d="M95.7 175.5h6v2.6h-6z"/><path transform="rotate(154.369 110.626 174.718)" class="st0" d="M107.6 173.4h6v2.6h-6z"/><path transform="scale(-1) rotate(-42.917 -425.488 308.414)" class="st0" d="M118.2 166h6v2.6h-6z"/><path transform="scale(-1) rotate(-70.92 -219.294 179.237)" class="st0" d="M124.7 154.9h6v2.6h-6z"/><path class="st0" d="M113.1 104.2l.8-4.7c10.3 10 23.5 24.2 26.7 34.4 1.4 4.3 2.1 8.8 2.1 13.4-.1 23.9-19.6 43.3-43.6 43.2S55.8 170.9 55.9 147c0-1.7.1-3.5.3-5.2l3.7 3.7v1.5c-.1 21.7 17.5 39.5 39.3 39.6 21.7.1 39.5-17.5 39.6-39.3 0-4.2-.6-8.3-1.9-12.2-2.8-8.5-14.3-21.5-23.8-30.9z"/><g><path class="st1" d="M264.3 64c5.9-4.9 9.7-12.2 9.7-20.5 0-14.6-11.9-26.5-26.5-26.5S221 28.9 221 43.5c0 8.3 3.8 15.6 9.7 20.5-9 5.6-15 15.6-15 27 0 17.6 14.2 31.8 31.8 31.8s31.8-14.2 31.8-31.8c0-11.4-6-21.4-15-27zm-16.8-36.2c8.7 0 15.7 7 15.7 15.7s-7 15.7-15.7 15.7-15.7-7-15.7-15.7 7.1-15.7 15.7-15.7zm0 84.2c-11.6 0-21-9.4-21-21s9.3-20.9 20.9-21h.2c11.5 0 20.9 9.4 20.9 21s-9.4 21-21 21zM364 61.4h-11.6V45.6c0-3-2.4-5.4-5.4-5.4-3 0-5.4 2.4-5.4 5.4v15.8H319l14-36.5c1.1-2.8-.3-6-3.1-7.1-2.8-1.1-6 .2-7.1 3.1L306 65.1c-1 2.7.4 5.8 3.1 6.8h.2c.6.2 1.3.4 2 .4h30.4V118c0 3 2.4 5.4 5.4 5.4 3 0 5.4-2.4 5.4-5.4V72.4H364c3 0 5.4-2.4 5.4-5.4v-.2c0-3-2.5-5.4-5.4-5.4zM427.5 17c-17.3 0-31.4 13.8-31.8 31.1v69.4c0 3 2.4 5.4 5.4 5.4 3 0 5.4-2.4 5.4-5.4V72.6c5.6 4.9 13 8 21 8 17.6 0 31.8-14.2 31.8-31.8S445 17 427.5 17zm0 52.5c-11.5 0-20.8-9.3-20.8-20.8s9.3-20.8 20.8-20.8 20.8 9.3 20.8 20.8c-.1 11.5-9.4 20.8-20.8 20.8zM607.6 17.5c-17.3 0-31.4 13.8-31.8 31.1V118c0 3 2.4 5.4 5.4 5.4 3 0 5.4-2.4 5.4-5.4V73.1c5.6 4.9 13 8 21 8 17.6 0 31.8-14.2 31.8-31.8s-14.3-31.8-31.8-31.8zm0 52.5c-11.5 0-20.8-9.3-20.8-20.8s9.3-20.8 20.8-20.8 20.8 9.3 20.8 20.8C628.3 60.7 619 70 607.6 70zM544.1 16.7c-3 0-5.4 2.4-5.4 5.4v37.3h-42.3V22.1c0-3-2.4-5.4-5.4-5.4-3 0-5.4 2.4-5.4 5.4v95.1c0 3 2.4 5.4 5.4 5.4 3 0 5.4-2.4 5.4-5.4V71.6h42.3v45.5c0 3 2.4 5.4 5.4 5.4 3 0 5.4-2.4 5.4-5.4v-95c-.1-3-2.5-5.4-5.4-5.4z"/><path class="st2" d="M228.5 176.7v10.7h-3v-10c-3.4.7-6.4 1.3-9.1 1.8l-.7-3.1c2.6-.4 6.1-1.1 9.8-1.8v-7.1h-4.4c-1.6 0-3.1.3-3.5.6-.2-.6-.6-2.1-1-2.8.7-.2 1.4-1.8 2.2-3.9.5-1.2 1.6-4.5 2.6-8.4h-5.3v-3h6c.4-1.9.8-3.8 1.1-5.8l3.1.7c-.3 1.7-.7 3.4-1.1 5.1h8.7v3h-9.5c-1.2 4.2-2.5 8.2-3.9 11.6h5v-7.4h3v7.4h5v2.9h-5v6.6l5.4-1.1.2 2.8-5.6 1.2zm19.9 6.5h10.7v3h-25.2v-3h11.3V171h-8.6v-3H257v3h-8.6v12.2zm9.1-17.3c-2.4-1.8-6.8-4.3-10.8-6.1-3.4 2.6-7.2 4.8-10.8 6.4-.4-.8-1.4-1.9-2-2.5 6.8-2.7 14.1-8 18-14.2h-15.6v-3h17.5l.6-.1 2.3 1.2c-1.8 3.9-4.5 7.3-7.6 10.2 3.7 1.9 7.9 4.1 10.2 5.7l-1.8 2.4zM277 156.1c-2 6.4-5.2 11.2-10.1 14.6-.5-.6-1.7-1.7-2.4-2.2 6.3-3.9 9.6-10.5 11-19.5h-8.7v-2.7h31.8c-.6 2.7-1.4 5.9-2.1 8.5h9.6s0 .9-.1 1.3c-.7 7.6-1.4 10.7-2.6 11.8-.8.8-1.7 1.1-3 1.2-1.2.1-3.4 0-5.8-.1 0-.9-.4-2-.9-2.7 2.4.2 4.7.2 5.5.2.8 0 1.3 0 1.7-.4.8-.7 1.3-3 1.9-8.5h-10.2c.7-2.3 1.6-5.5 2.2-8.4h-16.2c-.3 1.5-.6 3.1-1 4.5H289l.5-.1 1.7.6c-.9 3.6-2.3 6.5-4.1 8.8 2.1 1.4 3.9 2.8 5.1 4.1l-2 2c-1.2-1.2-2.9-2.7-4.9-4-2.4 2.2-5.2 3.7-8.4 4.8-.3-.7-1.2-1.8-1.8-2.3 3-.9 5.7-2.3 7.9-4.2-1.9-1.2-4-2.3-6-3.1l2-1.7c1.9.8 3.9 1.8 5.8 3 1.2-1.5 2.3-3.3 3-5.3H277zm31.5 27.3v2.8h-43.4v-2.8h5.4v-12H303v12h5.5zm-35 0h6.8V174h-6.8v9.4zm9.8-9.4v9.4h6.8V174h-6.8zm9.7 0v9.4h6.9V174H293zM339.4 144.9c-1.3 3.6-2.8 7.3-4.6 10.7v31.9h-3.1v-26.6c-1.3 2.1-2.7 3.9-4.1 5.6-.3-.8-1.3-2.4-1.9-3.1 4.3-4.7 8.3-11.9 10.7-19.3l3 .8zm16.1 26.8c-.5 3.1-1.5 6-3.8 8.7 5 2.2 11.2 3.5 18.3 4-.7.7-1.5 2-1.9 2.9-7.2-.7-13.6-2.2-18.7-4.7-2.5 2.1-6 3.8-10.9 5.1-.4-.7-1.2-2-1.9-2.6 4.5-1 7.7-2.4 10-4-2.9-1.9-5.3-4.2-7.1-7l2.7-1c1.5 2.4 3.8 4.5 6.6 6 2.1-2.2 3-4.7 3.4-7.3h-11.5v-18h11.9v-4.2h-13.2v-2.9H369v2.9h-13.2v4.2h11.4v18h-11.7zm-11.6-10.2h8.9v-5.2h-8.9v5.2zm8.8 7.7V164h-8.9v5.2h8.9zm11.5-5.3h-8.3v2.5c0 .9 0 1.8-.1 2.7h8.4v-5.2zm-8.3-7.6v5.2h8.3v-5.2h-8.3zM384.1 169v14.8c0 1.8-.4 2.6-1.5 3.2-1.1.5-3 .5-5.9.5-.1-.7-.6-2.1-1-2.9 2.1.1 4 .1 4.6 0 .6 0 .9-.2.9-.9v-13.9l-5.8 2-1-3.1c1.9-.5 4.2-1.2 6.8-2.1v-10.1H375v-2.9h6.1V144h2.9v9.7h5.4v2.9H384v9.1c1.7-.5 3.4-1.1 5.1-1.7l.5 3-5.5 2zm35.1 15.4c-.4.7-.9 2-1.1 2.8h-8.4c-7.5 0-12.6-1.5-15.9-7.3-1.3 3.3-3.1 6.1-5.3 8.3-.5-.5-1.7-1.5-2.4-2 3.8-3.4 6-8.6 6.9-15l2.9.4c-.2 1.6-.6 3.2-1 4.7 1.6 3.9 4 6.1 7.2 7.2v-13h-9.9v-2.6h9.9v-4.4h-12.6v-2.6h12.6V157h-9.9v-2.6h9.9v-3.5h-12v-2.7h12V144h3v4.3h12.6v2.7h-12.6v3.5h10.4v6.4h3.6v2.6h-3.6v7h-10.4v4.3h11v2.6h-11v6.8c1.4.2 3 .3 4.7.3h9.4zm-14-23.6h7.3V157h-7.3v3.8zm0 7h7.3v-4.4h-7.3v4.4zM469.2 165.6c-1.6 4.6-4 8.3-7 11.3 6 2.5 11.4 5.2 15.2 7.5l-2.6 2.8c-3.6-2.4-9.1-5.3-15.3-7.9-5 3.9-11.5 6.4-19.3 8.2-.3-.8-1.3-2.2-2-2.9 7.3-1.3 13.4-3.5 18-6.7-4.3-1.8-8.7-3.5-12.9-4.7 1.7-2.1 3.5-4.7 5.2-7.5h-11.2v-3.1h13c1.6-2.7 2.9-5.4 4-7.9l3.3.7c-1 2.2-2.2 4.7-3.6 7.2h24.4v3.1h-9.2zm-27.4-6.7h-3.2v-9.5h17.8c-.7-1.5-1.6-3.4-2.4-4.8l3.2-.8c1 1.8 2.2 4.1 2.8 5.7h17.1v9.5h-3.3v-6.5h-32.1v6.4zm10.5 6.7c-1.3 2.3-2.7 4.3-4 6.1 3.5 1.2 7.1 2.4 10.7 3.9 2.9-2.6 5.1-6 6.6-10h-13.3zM509.7 144.6c-.3.4-.6.9-.9 1.2 6 7.1 13.1 12 20.9 16.3-.8.7-1.8 1.8-2.3 2.7-7.6-4.6-14.3-9.6-20.4-16.7-5.2 6.7-12.7 12.6-20.3 16.5-.5-.8-1.4-1.9-2.2-2.6 8.7-4 17.4-11.1 22.3-18.8l2.9 1.4zm-1 38.7h18.8v2.9h-40.7v-2.9h18.6v-8.2h-12.6v-2.9h12.6v-7.8h-12.8v-2.9h29.2v2.9h-13.1v7.8h13.2v2.9h-13.2v8.2zM588.9 149v2.8h-41.8V149H567c-.4-1.4-1-3.2-1.5-4.5l3-.7c.7 1.7 1.4 3.7 1.9 5.2h18.5zm-1.6 35c0 1.6-.4 2.3-1.6 2.7-1.2.4-3.2.4-6.2.4-.2-.8-.6-1.7-1-2.4 2.1.1 4.3 0 4.8 0 .6 0 .8-.2.8-.7v-14.5H552v18h-3.1v-20.7h38.4V184zm-5.3-29.4v9.5h-27.5v-9.5H582zm-3.3 2.4h-21v4.7h21V157zm-.9 25.3h-17.1v2.4h-3v-12.1h20.1v9.7zm-17.1-7.3v4.8H575V175h-14.3zM604.4 156.1c-1.7 4-4.5 8.4-6.9 11.3-.5-.5-1.6-1.4-2.3-1.9 2.5-2.6 4.9-6.5 6.5-10.2l2.7.8zm8.5 26.5c-1.1-2.1-2.8-4.6-4.9-7.2-2.8 4.5-6.3 8.2-10.4 11-.4-.6-1.5-1.7-2.2-2.3 4.4-2.7 8-6.5 10.6-11.1-1.9-2.3-3.9-4.4-5.9-6.3l2.4-1.8c1.6 1.6 3.4 3.4 5 5.3 1-2.2 1.9-4.5 2.6-7l3 .6c-.9 3.2-2.1 6.1-3.5 8.8 2.5 2.9 4.7 5.9 5.9 8.2l-2.6 1.8zm4.8-28.8h-21.5v-2.9h10.4c-.7-1.6-2.2-4.1-3.6-5.9l2.5-1.2c1.5 1.8 3.2 4.2 3.9 5.9l-2.6 1.2h10.8v2.9zm-3 10.8c-.9-2.2-3.1-5.7-5.2-8.2l2.4-1.3c2.1 2.4 4.4 5.9 5.4 8.1l-2.6 1.4zm21.3-9c-1.2 8.2-3.2 14.7-6.4 20 2.6 4.1 5.8 7.4 9.7 9.4-.8.6-1.7 1.7-2.3 2.5-3.7-2.1-6.8-5.2-9.3-9.2-2.9 3.9-6.5 6.9-11.2 9.4-.4-.6-1.5-1.8-2.2-2.4 5.1-2.4 8.9-5.6 11.7-9.7-1.9-3.7-3.5-7.8-4.7-12.3-.9 1.7-1.8 3.4-2.8 4.8-.4-.6-1.5-1.8-2.2-2.4 3.8-5.2 6.2-13.4 7.7-21.9l3 .5c-.5 2.8-1.1 5.7-1.9 8.4h13.4v3H636zm-11.5 0c-.3 1.2-.7 2.3-1.2 3.4 1 4.9 2.6 9.6 4.6 13.6 2.4-4.7 4-10.3 5-16.9h-8.4z"/></g></svg>